<?xml version="1.0" encoding="UTF-8"?>
<svg version="1.1" xmlns="http://www.w3.org/2000/svg" width="205" height="203">
<path d="M0 0 C67.65 0 135.3 0 205 0 C205 66.99 205 133.98 205 203 C137.35 203 69.7 203 0 203 C0 136.01 0 69.02 0 0 Z " fill="#EB8A5D" transform="translate(0,0)"/>
<path d="M0 0 C67.65 0 135.3 0 205 0 C205 66.99 205 133.98 205 203 C137.35 203 69.7 203 0 203 C0 136.01 0 69.02 0 0 Z M3.54737759 3.55059147 C1.43091683 6.90082549 1.4513179 9.86499225 1.50552368 13.7052002 C1.50069485 14.48575413 1.49586602 15.26630807 1.49089086 16.07051516 C1.47961018 18.68862559 1.49694587 21.30576139 1.51416016 23.92382812 C1.51201453 25.79968022 1.50813718 27.67553103 1.50265503 29.55137634 C1.49295166 34.64848358 1.50827745 39.74524118 1.52856112 44.84230614 C1.54611295 50.17225123 1.5426074 55.50218522 1.5418396 60.83215332 C1.54371338 69.78350687 1.56108763 78.73472492 1.58837891 87.68603516 C1.6198305 98.0402564 1.63037513 108.3943292 1.6289078 118.74859476 C1.62768765 128.70224477 1.63789477 138.65584635 1.65449142 148.60948181 C1.66155867 152.84863157 1.66521815 157.08776419 1.66627884 161.32691956 C1.66828599 166.31735745 1.68048156 171.30767042 1.70061111 176.29806709 C1.70645927 178.13147275 1.70891222 179.96489279 1.70775604 181.79830742 C1.7067764 184.29727159 1.71806827 186.79588451 1.73257446 189.2947998 C1.72947726 190.02359108 1.72638005 190.75238236 1.723189 191.50325823 C1.75811829 195.13666962 1.87637409 197.97073359 4 201 C7.029704 202.514852 10.17184212 202.15165763 13.4959259 202.15390015 C14.27814898 202.1582824 15.06037205 202.16266465 15.86629885 202.1671797 C18.50176997 202.18059275 21.13720763 202.18675215 23.77270508 202.19287109 C25.6564906 202.20077002 27.54027461 202.20903884 29.42405701 202.21765137 C35.62253367 202.24389343 41.82101718 202.25918015 48.01953125 202.2734375 C50.15102328 202.27879609 52.28251526 202.28417359 54.41400719 202.28956985 C63.27809087 202.31120086 72.14217272 202.32993895 81.00627613 202.34119225 C93.72228732 202.35744033 106.43799335 202.39063654 119.15388948 202.44759309 C128.08811669 202.48625089 137.02226213 202.50581994 145.9565708 202.51111281 C151.29614009 202.51477168 156.63538408 202.52684997 161.97486305 202.55921555 C166.99738341 202.58922327 172.01938041 202.59563409 177.04197121 202.58383179 C178.88627063 202.58361045 180.73059382 202.59196531 182.57481003 202.60948563 C185.0915486 202.63209528 187.60637615 202.62392182 190.12312317 202.60800171 C190.8542568 202.6218838 191.58539042 202.63576588 192.33867961 202.65006864 C196.01504651 202.59270422 197.91176977 202.06130895 200.95262241 199.9482975 C203.48141447 196.30674582 203.70115379 193.50270208 203.63491821 189.21923828 C203.64271817 188.44261904 203.65051812 187.66599979 203.65855443 186.86584663 C203.67847796 184.26685085 203.66270941 181.6693188 203.64697266 179.0703125 C203.65374865 177.20578151 203.66265167 175.34125721 203.67352295 173.47674561 C203.69632505 168.41471715 203.68747612 163.35319799 203.67162752 158.29116058 C203.6589733 152.99503705 203.67070731 147.69895727 203.67855835 142.40283203 C203.68765629 133.50870938 203.67566314 124.61479427 203.65185547 115.72070312 C203.62464399 105.436215 203.63345804 95.15222247 203.6609875 84.86774635 C203.68367338 76.03957182 203.68688117 67.21154654 203.67379415 58.38335228 C203.6659968 53.10983531 203.66496592 47.83655134 203.68147659 42.56304932 C203.69591444 37.60524534 203.68591202 32.64808064 203.65700531 27.69034576 C203.65039085 25.87026278 203.65229832 24.05012604 203.66331863 22.23006439 C203.67697204 19.74623597 203.65986316 17.26445916 203.63491821 14.78076172 C203.64607182 14.05945635 203.65722543 13.33815098 203.66871703 12.59498787 C203.59760939 8.94809453 203.04791232 7.06893761 200.95178127 4.05296421 C197.28653197 1.5037829 194.44905177 1.30186933 190.13658142 1.37181091 C189.35108951 1.36471653 188.56559759 1.35762214 187.75630289 1.35031277 C185.12731897 1.33272679 182.49981235 1.35083961 179.87084961 1.36889648 C177.98499376 1.36375792 176.09914271 1.35647712 174.21330261 1.34721375 C169.09347811 1.32868484 163.97417375 1.34164731 158.85437083 1.36130404 C153.49906342 1.37767707 148.1437893 1.36887964 142.78846741 1.36378479 C133.79598673 1.35926273 124.803714 1.37514171 115.8112793 1.40307617 C105.40980874 1.43513825 95.00871303 1.4351089 84.60721582 1.4178614 C74.60601655 1.40200755 64.60495491 1.40872191 54.60376167 1.42579842 C50.34504096 1.43267702 46.0864303 1.43162819 41.82771111 1.42425346 C36.81498755 1.41660225 31.80269157 1.42867871 26.79004097 1.45610237 C24.94857681 1.46299915 23.10707281 1.46307038 21.26560974 1.45588684 C18.75540487 1.4472216 16.2465285 1.46309722 13.73643494 1.4853363 C13.00443483 1.47709554 12.27243472 1.46885477 11.51825279 1.46036428 C8.31663979 1.51286659 6.27358964 1.82703177 3.54737759 3.55059147 Z " fill="#42324B" transform="translate(0,0)"/>
<path d="M0 0 C9.9 0 19.8 0 30 0 C30 1.98 30 3.96 30 6 C28.865625 6.474375 27.73125 6.94875 26.5625 7.4375 C23.24259834 8.63622083 23.24259834 8.63622083 22 10 C21.76828545 12.66210399 21.60260087 15.30076218 21.48046875 17.96875 C21.43955612 18.80796997 21.39864349 19.64718994 21.35649109 20.51184082 C20.88321677 30.73776649 20.61186125 40.96959479 20.38745117 51.20361328 C20.31133118 54.55140517 20.22099585 57.89865341 20.13085938 61.24609375 C20.08246059 63.38279291 20.03490195 65.5195113 19.98828125 67.65625 C19.95922195 68.65297729 19.93016266 69.64970459 19.90022278 70.67663574 C19.88327866 71.59609985 19.86633453 72.51556396 19.84887695 73.46289062 C19.82968704 74.26940063 19.81049713 75.07591064 19.79072571 75.90686035 C19.86530746 78.30623064 19.86530746 78.30623064 22 81 C24.19454681 81.57993699 24.19454681 81.57993699 26.625 81.6875 C27.44226563 81.75324219 28.25953125 81.81898438 29.1015625 81.88671875 C29.72804688 81.92410156 30.35453125 81.96148437 31 82 C30.67 83.98 30.34 85.96 30 88 C19.77 88 9.54 88 -1 88 C-1 86.02 -1 84.04 -1 82 C3.455 81.01 3.455 81.01 8 80 C8.33 56.24 8.66 32.48 9 8 C6.03 7.67 3.06 7.34 0 7 C0 4.69 0 2.38 0 0 Z " fill="#1D1E47" transform="translate(66,57)"/>
<path d="M0 0 C1.75171509 0.07069702 1.75171509 0.07069702 3.53881836 0.14282227 C5.42890625 0.21533203 5.42890625 0.21533203 7.35717773 0.28930664 C8.69767719 0.34583669 10.03817193 0.40247878 11.37866211 0.45922852 C12.72304457 0.51243456 14.06744554 0.56517504 15.41186523 0.61743164 C18.71350868 0.74760396 22.01488653 0.88258462 25.31616211 1.02172852 C25.31616211 3.00172852 25.31616211 4.98172852 25.31616211 7.02172852 C24.18178711 7.51672852 23.04741211 8.01172852 21.87866211 8.52172852 C14.29150039 12.32871425 8.62180608 18.46105908 3.21069336 24.87329102 C0.16347222 28.32890262 -3.15227506 31.50958339 -6.44946289 34.72485352 C-9.39258178 37.63456823 -9.39258178 37.63456823 -11.68383789 41.02172852 C-10.71550486 45.79883812 -7.22314062 49.35863876 -4.18383789 53.02172852 C-3.09398482 54.35399014 -2.00546544 55.68734378 -0.91821289 57.02172852 C-0.37358398 57.68946289 0.17104492 58.35719727 0.73217773 59.04516602 C2.65413199 61.44346159 4.49257107 63.89661806 6.32666016 66.36230469 C12.10752426 74.10162581 17.42082565 81.16635293 27.31616211 83.02172852 C27.31616211 85.00172852 27.31616211 86.98172852 27.31616211 89.02172852 C13.96233138 91.11901727 13.96233138 91.11901727 8.70678711 88.93969727 C1.54643837 82.97722642 -3.64155351 74.09434966 -8.93286133 66.49438477 C-10.72768673 63.959807 -12.57455828 61.47221542 -14.44165039 58.99047852 C-15.0471875 58.17885254 -15.65272461 57.36722656 -16.27661133 56.53100586 C-17.44543722 54.96734097 -18.62291272 53.41009649 -19.80981445 51.86010742 C-20.33285156 51.15289551 -20.85588867 50.44568359 -21.39477539 49.71704102 C-21.86189941 49.09845215 -22.32902344 48.47986328 -22.81030273 47.8425293 C-23.68383789 46.02172852 -23.68383789 46.02172852 -23.42700195 43.90698242 C-22.44019654 41.40366067 -21.02063288 40.10475704 -19.05883789 38.27172852 C-16.33579819 35.65490667 -13.7550909 33.02398801 -11.30883789 30.14672852 C-7.70265242 25.9409002 -3.78455442 22.08781799 0.17944336 18.22094727 C2.45143341 16.01594787 2.45143341 16.01594787 4.31616211 13.02172852 C4.00398571 10.37540564 4.00398571 10.37540564 3.31616211 8.02172852 C1.00616211 7.69172852 -1.30383789 7.36172852 -3.68383789 7.02172852 C-3.72638145 5.02218106 -3.72464572 3.02131215 -3.68383789 1.02172852 C-2.68383789 0.02172852 -2.68383789 0.02172852 0 0 Z " fill="#1A1D46" transform="translate(112.683837890625,56.978271484375)"/>
<path d="M0 0 C2.31 0 4.62 0 7 0 C7 66.99 7 133.98 7 203 C4.36 203 1.72 203 -1 203 C0.2180654 201.75964587 0.2180654 201.75964587 1.46073818 200.49423409 C4.42517558 196.91186428 4.7028711 193.62952872 4.62818909 189.09225464 C4.63528347 188.3140754 4.64237786 187.53589617 4.64968723 186.73413575 C4.66723953 184.13588866 4.64917776 181.53914303 4.63110352 178.94091797 C4.63624333 177.07461873 4.64352507 175.20832435 4.65278625 173.34204102 C4.67129798 168.28012279 4.65836405 163.21873137 4.63869596 158.15683508 C4.62231121 152.86025726 4.63112189 147.56371285 4.63621521 142.26712036 C4.64073556 133.37477195 4.62486791 124.48263393 4.59692383 115.59033203 C4.56485256 105.30528695 4.56489551 95.02062092 4.5821386 84.73554885 C4.59799218 74.84380386 4.59127892 64.95219803 4.57420158 55.06045914 C4.56732378 50.84918648 4.56837096 46.63802512 4.57574654 42.426754 C4.5833977 37.47064882 4.57132149 32.51497609 4.54389763 27.5589447 C4.53700118 25.73844308 4.53692928 23.91790117 4.54411316 22.09740067 C4.55277908 19.61570778 4.53690185 17.1353584 4.5146637 14.65377808 C4.52290446 13.93024198 4.53114523 13.20670589 4.53963572 12.46124446 C4.48202639 8.98774869 4.31345478 7.35335755 1.96783352 4.70913887 C0.99375593 3.86311513 0.99375593 3.86311513 0 3 C0 2.01 0 1.02 0 0 Z " fill="#151A46" transform="translate(198,0)"/>
<path d="M0 0 C0.99 0 1.98 0 3 0 C3.0825 0.61875 3.165 1.2375 3.25 1.875 C3.81258459 4.18437567 3.81258459 4.18437567 6.0625 5.25 C6.701875 5.4975 7.34125 5.745 8 6 C5.36 6 2.72 6 0 6 C0 4.02 0 2.04 0 0 Z " fill="#222147" transform="translate(0,197)"/>
</svg>
