<?xml version="1.0" encoding="UTF-8"?>
<svg version="1.1" xmlns="http://www.w3.org/2000/svg" width="268" height="246">
<path d="M0 0 C88.44 0 176.88 0 268 0 C268 81.18 268 162.36 268 246 C179.56 246 91.12 246 0 246 C0 164.82 0 83.64 0 0 Z " fill="#0C0C0D" transform="translate(0,0)"/>
<path d="M0 0 C0.79198288 0.00848969 1.58396576 0.01697937 2.39994812 0.02572632 C4.91778371 0.0591883 7.43235951 0.13444307 9.94921875 0.2109375 C11.66076087 0.24104691 13.37235345 0.26842103 15.08398438 0.29296875 C19.26947608 0.35895454 23.45254573 0.46241714 27.63671875 0.5859375 C26.29844589 3.38715493 24.80576091 5.93792614 23.0546875 8.5 C22.28511719 9.62740601 22.28511719 9.62740601 21.5 10.77758789 C20.94699219 11.58059326 20.39398438 12.38359863 19.82421875 13.2109375 C18.95796875 14.47248657 18.95796875 14.47248657 18.07421875 15.75952148 C12.06792378 24.47011493 5.86534529 33.03374487 -0.36328125 41.5859375 C-2.67876947 44.77127898 -4.99041805 47.9593777 -7.30078125 51.1484375 C-7.82027344 51.86201416 -8.33976562 52.57559082 -8.875 53.31079102 C-9.87502017 54.69081241 -10.86851149 56.07559164 -11.85498047 57.46533203 C-12.92354613 58.967689 -14.01044428 60.45708371 -15.10986328 61.93701172 C-15.66915527 62.71705566 -16.22844727 63.49709961 -16.8046875 64.30078125 C-17.57534546 65.3525354 -17.57534546 65.3525354 -18.36157227 66.42553711 C-19.67724018 69.26305732 -19.31625193 70.64619575 -18.36328125 73.5859375 C-17.43512351 75.42341712 -17.43512351 75.42341712 -16.2109375 77.08203125 C-15.54868164 78.03239258 -15.54868164 78.03239258 -14.87304688 79.00195312 C-14.39544922 79.66904297 -13.91785156 80.33613281 -13.42578125 81.0234375 C-12.93142578 81.72791016 -12.43707031 82.43238281 -11.92773438 83.15820312 C-10.4156193 85.30760808 -8.89163041 87.44805322 -7.36328125 89.5859375 C-6.92741699 90.19711426 -6.49155273 90.80829102 -6.04248047 91.43798828 C-4.40777934 93.72887676 -2.77130087 96.0184369 -1.12841797 98.3034668 C1.95957331 102.6061971 4.96400304 106.96145039 7.94921875 111.3359375 C12.07630585 117.37458015 16.29378303 123.34250246 20.57421875 129.2734375 C21.11796143 130.02786133 21.6617041 130.78228516 22.22192383 131.55957031 C24.41772779 134.59038867 26.60685408 137.55038432 29.015625 140.41796875 C30.63671875 142.5859375 30.63671875 142.5859375 30.63671875 145.5859375 C25.63823555 145.80947642 20.64269418 145.97219271 15.64038086 146.08032227 C13.94162295 146.12541345 12.24321112 146.18671023 10.5456543 146.26489258 C-3.50053463 146.89530235 -3.50053463 146.89530235 -7.89526367 143.80615234 C-9.71541513 141.48896618 -11.04080062 139.21439068 -12.36328125 136.5859375 C-13.2334541 135.31222457 -14.12184775 134.05069431 -15.03125 132.8046875 C-15.87359757 131.56680425 -16.71338119 130.32717298 -17.55078125 129.0859375 C-21.37790377 123.46777742 -25.24651926 117.88316922 -29.17578125 112.3359375 C-35.37589804 103.57845104 -41.55337171 94.80455526 -47.67041016 85.98876953 C-48.85879799 84.30199234 -50.07172531 82.63236573 -51.30224609 80.97607422 C-51.93469238 80.11385254 -52.56713867 79.25163086 -53.21875 78.36328125 C-53.7964917 77.59105225 -54.3742334 76.81882324 -54.96948242 76.02319336 C-56.6141199 73.14731037 -57.1322924 70.88193845 -57.36328125 67.5859375 C-55.73046875 64.82421875 -55.73046875 64.82421875 -53.23828125 61.8984375 C-52.30229703 60.76060069 -51.3715972 59.61840305 -50.4453125 58.47265625 C-49.94467285 57.85438965 -49.4440332 57.23612305 -48.92822266 56.59912109 C-46.07699514 52.93122373 -43.51747187 49.06433671 -40.92578125 45.2109375 C-36.0997151 38.07687577 -31.12917908 31.0823806 -26 24.1640625 C-22.86597236 19.93260149 -19.822141 15.63748702 -16.7980957 11.3269043 C-15.67118857 9.7336742 -14.51740518 8.15956382 -13.36328125 6.5859375 C-12.66356201 5.5436499 -11.96384277 4.5013623 -11.24291992 3.42749023 C-8.10130297 -0.29337856 -4.6151971 -0.18764809 0 0 Z " fill="#FAFAFB" transform="translate(122.36328125,55.4140625)"/>
<path d="M0 0 C1.7459396 0.05523895 3.49204704 0.10541831 5.23828125 0.15039062 C9.49636191 0.2710187 13.74632347 0.46039585 18 0.6875 C16.62238792 3.59601866 15.04802065 6.18796644 13.19921875 8.8203125 C12.36185181 10.01551514 12.36185181 10.01551514 11.50756836 11.23486328 C10.9069458 12.0854834 10.30632324 12.93610352 9.6875 13.8125 C9.06302979 14.70050293 8.43855957 15.58850586 7.79516602 16.50341797 C1.60522449 25.28596838 -4.68750582 33.99286199 -11 42.6875 C-13.35602569 45.9361571 -15.70968408 49.18651783 -18.0625 52.4375 C-18.59883057 53.17629395 -19.13516113 53.91508789 -19.68774414 54.67626953 C-20.68422653 56.0529907 -21.67551521 57.43349167 -22.66064453 58.81835938 C-23.8710401 60.50752972 -25.11898033 62.16964199 -26.37109375 63.828125 C-28.31522742 67.24084885 -28.68957181 68.82292129 -28 72.6875 C-26.52109303 75.11480423 -25.07544599 77.17610813 -23.3125 79.375 C-22.29511176 80.69947393 -21.28093201 82.026417 -20.26953125 83.35546875 C-19.73408691 84.05591309 -19.19864258 84.75635742 -18.64697266 85.47802734 C-15.80307275 89.29322067 -13.16055793 93.24334304 -10.5 97.1875 C-6.14129596 103.61666877 -1.67196999 109.93579645 2.95898438 116.17114258 C6.89880249 121.495827 10.65931958 126.93493408 14.38525391 132.41088867 C15.02986572 133.35798706 15.02986572 133.35798706 15.6875 134.32421875 C16.08710938 134.91380371 16.48671875 135.50338867 16.8984375 136.11083984 C17.81966293 137.42938458 18.80874445 138.70017354 19.8125 139.95703125 C21 141.6875 21 141.6875 21 144.6875 C16.12550911 144.86117998 11.25283603 144.98785478 6.37597656 145.07202148 C4.71908177 145.1071197 3.0624022 145.15481347 1.40625 145.21557617 C-12.26024912 145.70425207 -12.26024912 145.70425207 -16.27587891 143.35742188 C-17.85749875 141.55188731 -18.90694512 139.81971211 -20 137.6875 C-20.84416484 136.4832517 -21.70109178 135.28785234 -22.5703125 134.1015625 C-23.42566856 132.84110769 -24.27709201 131.57797713 -25.125 130.3125 C-26.08495005 128.89776698 -27.04592284 127.48372749 -28.0078125 126.0703125 C-28.74499512 124.9860498 -28.74499512 124.9860498 -29.49707031 123.87988281 C-31.95921287 120.28825836 -34.47978759 116.7385042 -37 113.1875 C-41.31520486 107.10103071 -45.56814692 100.97662283 -49.75878906 94.80371094 C-52.30024834 91.08274916 -54.9146032 87.43312286 -57.61328125 83.82421875 C-58.21793213 83.01009521 -58.82258301 82.19597168 -59.44555664 81.35717773 C-60.62789689 79.77171241 -61.8207679 78.1940338 -63.02514648 76.62524414 C-63.82480835 75.55004517 -63.82480835 75.55004517 -64.640625 74.453125 C-65.12047852 73.82180664 -65.60033203 73.19048828 -66.09472656 72.54003906 C-67 70.6875 -67 70.6875 -66.72070312 68.57373047 C-65.84369836 66.278426 -64.69318381 64.55580833 -63.25 62.5625 C-62.62609375 61.69367188 -62.0021875 60.82484375 -61.359375 59.9296875 C-60.57297806 58.84891366 -59.78651229 57.7681899 -59 56.6875 C-57.96301657 55.2529836 -56.92660039 53.81805705 -55.890625 52.3828125 C-54.18238804 50.01677609 -52.47366422 47.6511037 -50.76293945 45.28686523 C-47.42570503 40.67313505 -44.11852 36.04198896 -40.8671875 31.3671875 C-38.27864915 27.65225589 -35.67128092 23.95073456 -33.0625 20.25 C-32.58417725 19.56993896 -32.10585449 18.88987793 -31.61303711 18.18920898 C-30.62546908 16.78875754 -29.61969867 15.40100331 -28.59814453 14.02514648 C-26.90058689 11.65272921 -26.90058689 11.65272921 -25.50732422 8.72680664 C-19.43702727 -2.10602997 -11.09007635 -0.60983914 0 0 Z " fill="#FBFBFB" transform="translate(175,56.3125)"/>
<path d="M0 0 C0.495 1.485 0.495 1.485 1 3 C1.66 2.67 2.32 2.34 3 2 C3.495 3.485 3.495 3.485 4 5 C3.1105957 6.72314453 3.1105957 6.72314453 1.67578125 8.6328125 C1.14766846 9.34791992 0.61955566 10.06302734 0.07543945 10.79980469 C-0.50633057 11.56711914 -1.08810059 12.33443359 -1.6875 13.125 C-2.89676595 14.75712192 -4.10507765 16.38995124 -5.3125 18.0234375 C-5.92996094 18.85327148 -6.54742187 19.68310547 -7.18359375 20.53808594 C-9.91060004 24.23420575 -12.55119133 27.98891828 -15.1875 31.75 C-16.1754305 33.15389273 -17.16370702 34.55754202 -18.15234375 35.9609375 C-18.86559814 36.97365723 -18.86559814 36.97365723 -19.59326172 38.00683594 C-21.80223832 41.13666673 -24.02475311 44.25672639 -26.25 47.375 C-26.6521875 47.9417041 -27.054375 48.5084082 -27.46875 49.09228516 C-29.41285846 51.82280143 -31.39305809 54.51230044 -33.43359375 57.171875 C-34.54927734 58.63367188 -34.54927734 58.63367188 -35.6875 60.125 C-36.35136719 60.97320312 -37.01523438 61.82140625 -37.69921875 62.6953125 C-39.21964908 64.8439677 -39.21964908 64.8439677 -38.73168945 66.91577148 C-37.94656182 69.15221946 -36.98127241 70.73434288 -35.59375 72.65234375 C-35.10213379 73.33917236 -34.61051758 74.02600098 -34.10400391 74.73364258 C-33.57468262 75.46091553 -33.04536133 76.18818848 -32.5 76.9375 C-31.39274165 78.48142132 -30.28597428 80.02569486 -29.1796875 81.5703125 C-28.6340918 82.32860352 -28.08849609 83.08689453 -27.52636719 83.86816406 C-25.52650076 86.66132364 -23.57276527 89.48272781 -21.625 92.3125 C-18.94570279 96.19674622 -16.25284709 100.07060686 -13.54296875 103.93359375 C-12.62040283 105.24880005 -12.62040283 105.24880005 -11.67919922 106.59057617 C-10.4694802 108.31402232 -9.25892069 110.03687892 -8.04736328 111.7590332 C-4.28436039 117.12074996 -0.60791544 122.53271517 3 128 C0.03 128.99 0.03 128.99 -3 130 C-8.18392989 122.80322097 -13.31365938 115.57681725 -18.3125 108.25 C-22.32745813 102.3709285 -26.4447881 96.57512073 -30.625 90.8125 C-31.16890381 90.05839844 -31.71280762 89.30429688 -32.27319336 88.52734375 C-34.77541604 85.05860215 -37.29153116 81.6040842 -39.859375 78.18359375 C-40.69833587 77.03936975 -41.53690512 75.89485845 -42.375 74.75 C-43.10460937 73.77546875 -43.83421875 72.8009375 -44.5859375 71.796875 C-46 69 -46 69 -46.0859375 66.15625 C-44.56454875 61.7343719 -42.06287345 58.45125549 -39.25 54.75 C-38.05575707 53.13819308 -36.86175316 51.52620905 -35.66796875 49.9140625 C-35.05614746 49.09583008 -34.44432617 48.27759766 -33.81396484 47.43457031 C-31.02548322 43.69207519 -28.29258643 39.9101984 -25.5625 36.125 C-25.0355957 35.39659912 -24.50869141 34.66819824 -23.96582031 33.91772461 C-18.59498641 26.4765104 -13.34077989 18.95456404 -8.09375 11.42578125 C-5.42376111 7.59675943 -2.72137044 3.7926562 0 0 Z " fill="#171417" transform="translate(148,59)"/>
<path d="M0 0 C6.64574408 0.60633157 13.19717068 0.55023487 19.86328125 0.39648438 C21.73812698 0.36106789 21.73812698 0.36106789 23.65084839 0.32493591 C26.94830892 0.26182914 30.24560954 0.1936898 33.54290771 0.12268066 C64.07276389 -0.52762419 64.07276389 -0.52762419 75.91015625 -0.58007812 C76.60376251 -0.58631699 77.29736877 -0.59255585 78.01199341 -0.59898376 C81.91632367 -0.60074067 85.58680566 -0.23010111 89.41796875 0.51757812 C89.08796875 1.83757813 88.75796875 3.15757813 88.41796875 4.51757812 C42.54796875 4.51757812 -3.32203125 4.51757812 -50.58203125 4.51757812 C-50.25203125 3.52757812 -49.92203125 2.53757812 -49.58203125 1.51757812 C-48.3288208 1.4799939 -48.3288208 1.4799939 -47.05029297 1.44165039 C-43.8780174 1.34512952 -40.70583544 1.24600827 -37.53369141 1.14526367 C-35.51470819 1.08188858 -33.49563591 1.021371 -31.4765625 0.9609375 C-24.04408873 0.72295189 -16.66303313 0.34223946 -9.25830078 -0.38110352 C-6.08050033 -0.46868402 -3.15642359 -0.29822644 0 0 Z " fill="#2B2928" transform="translate(111.58203125,3.482421875)"/>
<path d="M0 0 C4.98391901 0.43275719 9.96976103 0.49266943 14.9697876 0.57325745 C16.06402542 0.59403854 17.15826324 0.61481964 18.28565979 0.63623047 C21.73890658 0.7009718 25.1922213 0.76025571 28.64556885 0.8193512 C31.00429948 0.86260836 33.36302356 0.90622479 35.72174072 0.95021057 C41.4671142 1.0565744 47.21255338 1.15847254 52.95806885 1.2568512 C52.95806885 1.9168512 52.95806885 2.5768512 52.95806885 3.2568512 C17.97806885 3.5868512 -17.00193115 3.9168512 -53.04193115 4.2568512 C-52.71193115 3.2668512 -52.38193115 2.2768512 -52.04193115 1.2568512 C-50.7887207 1.21926697 -50.7887207 1.21926697 -49.51019287 1.18092346 C-46.3379173 1.08440259 -43.16573534 0.98528134 -39.99359131 0.88453674 C-37.97460809 0.82116165 -35.95553581 0.76064407 -33.9364624 0.70021057 C-26.47188881 0.46119713 -19.05790177 0.07650432 -11.62054443 -0.64183044 C-7.67876376 -0.75343087 -3.91832092 -0.39271825 0 0 Z " fill="#3B3938" transform="translate(114.04193115234375,3.7431488037109375)"/>
<path d="M0 0 C0 0.33 0 0.66 0 1 C-10.81099703 1.80620025 -21.60190891 2.26880381 -32.4375 2.5625 C-33.95899181 2.60585984 -35.48047626 2.64947846 -37.00195312 2.69335938 C-40.6678893 2.79854022 -44.33391085 2.90027519 -48 3 C-48 3.33 -48 3.66 -48 4 C-50.64 4 -53.28 4 -56 4 C-55.67 3.01 -55.34 2.02 -55 1 C-53.74678955 0.96241577 -53.74678955 0.96241577 -52.46826172 0.92407227 C-49.29598615 0.82755139 -46.12380419 0.72843014 -42.95166016 0.62768555 C-40.93267694 0.56431046 -38.91360466 0.50379288 -36.89453125 0.44335938 C-29.28321826 0.19964738 -21.7149087 -0.19296644 -14.12695312 -0.84375 C-9.36445627 -1.08172611 -4.71842703 -0.62591379 0 0 Z " fill="#232121" transform="translate(117,4)"/>
<path d="M0 0 C4.29 0 8.58 0 13 0 C13 0.66 13 1.32 13 2 C15.31 2 17.62 2 20 2 C20.495 2.99 20.495 2.99 21 4 C7.14 4 -6.72 4 -21 4 C-21 3.67 -21 3.34 -21 3 C-10.605 2.505 -10.605 2.505 0 2 C0 1.34 0 0.68 0 0 Z " fill="#1B1A19" transform="translate(178,0)"/>
<path d="M0 0 C3.9036874 3.46994436 6.36588975 7.55224006 9 12 C7.02 12.66 5.04 13.32 3 14 C-0.97674419 9.17970402 -0.97674419 9.17970402 -1.04296875 5.8203125 C-0.78224541 3.86662563 -0.39933709 1.93012925 0 0 Z " fill="#1E1B1E" transform="translate(142,175)"/>
<path d="M0 0 C0.33 0.99 0.66 1.98 1 3 C1.66 2.67 2.32 2.34 3 2 C3.33 2.99 3.66 3.98 4 5 C2.3125 7.0625 2.3125 7.0625 0 9 C-2.75 8.75 -2.75 8.75 -5 8 C-3.35 5.36 -1.7 2.72 0 0 Z " fill="#201E1F" transform="translate(148,59)"/>
<path d="M0 0 C0.125 2.875 0.125 2.875 0 6 C-0.66 6.66 -1.32 7.32 -2 8 C-6 2.25 -6 2.25 -6 0 C-3 -1 -3 -1 0 0 Z " fill="#110E11" transform="translate(142,174)"/>
<path d="M0 0 C-0.1875 1.875 -0.1875 1.875 -1 4 C-3.375 5.125 -3.375 5.125 -6 6 C-6.99 6.66 -7.98 7.32 -9 8 C-8.875 6.25 -8.875 6.25 -8 4 C-2.77777778 0 -2.77777778 0 0 0 Z " fill="#0E0D0E" transform="translate(140,78)"/>
</svg>
